<?xml version="1.0" encoding="utf-8"?>
<!-- Generator: Adobe Illustrator 22.0.1, SVG Export Plug-In . SVG Version: 6.00 Build 0)  -->
<svg version="1.1" id="Livello_1" xmlns="http://www.w3.org/2000/svg" xmlns:xlink="http://www.w3.org/1999/xlink" x="0px" y="0px"
	 viewBox="0 0 32 32" style="enable-background:new 0 0 32 32;" xml:space="preserve">
<style type="text/css">
	.st0{fill:#7B2777;}
</style>
<path class="st0" d="M1,20.2c0.1-0.7,0.2-1.4,0.4-2.1c0.3-1,0.7-1.9,1.4-2.6c3.8-4.2,7.5-8.4,11.3-12.6c0.6-0.6,1.1-0.8,2-0.6
	c4.6,1,9.1,2.1,13.7,3.1c1.2,0.3,1.5,1.3,0.7,2.2c-4,4.6-7.9,9.1-11.9,13.7c-0.1,0.2-0.3,0.3-0.4,0.4c-0.4,0.3-0.8,0.3-1.2,0.2
	c-3.8-1.1-7.7-2.2-11.5-3.3c-0.1,0-0.2-0.1-0.4-0.1c-1-0.1-1.5,0.3-1.7,1.3c-0.2,0.9-0.1,1.7,0.3,2.5c0.4,0.7,0.9,1.2,1.7,1.4
	c4.1,1.2,8.2,2.4,12.3,3.7c0.2,0.1,0.3,0,0.4-0.1c3.3-4,6.7-8.1,10-12.1c0.2-0.2,0.2-0.4,0.2-0.6c-0.2-0.9-0.1-1.9,0.2-2.8
	c0.2-0.6,0.7-0.9,1.2-0.9c0.5,0.1,1,0.5,1,1c0,0.2,0,0.4-0.1,0.6c-0.2,0.7-0.2,1.4,0,2.1c0.2,0.5,0,0.9-0.3,1.3
	c-2.1,2.5-4.2,5-6.3,7.6c-1.6,1.9-3.2,3.8-4.8,5.8c-0.4,0.5-0.9,0.7-1.6,0.5c-4.5-1.3-8.9-2.6-13.4-4c-1.3-0.4-2.1-1.3-2.8-2.4
	c-0.3-0.6-0.5-1.3-0.6-2c0-0.1,0-0.2-0.1-0.3C1,20.8,1,20.5,1,20.2z"/>
</svg>
